<svg xmlns="http://www.w3.org/2000/svg" viewBox="0 0 220.5 220"><defs><style>.cls-1{fill:#e0e0e0;}</style></defs><g id="レイヤー_2" data-name="レイヤー 2"><g id="レイヤー_1-2" data-name="レイヤー 1"><path class="cls-1" d="M159.41,114.35h-6v8.76h5.8a4.38,4.38,0,0,0,.19-8.76Z"/><polygon class="cls-1" points="80.57 15.66 76.8 27.22 84.11 27.22 80.57 15.66"/><polygon class="cls-1" points="220.5 8.72 204.96 8.72 204.96 15.96 220.44 15.96 220.5 8.72"/><polygon class="cls-1" points="220.44 25.44 204.96 25.44 204.96 33.04 220.5 33.04 220.44 25.44"/><polygon class="cls-1" points="177.23 0 164.34 0 177.23 21.01 177.23 0"/><path class="cls-1" d="M29.06,0l9.05,18.34L47.17,0ZM57.69,0V42.53H47.37V21.81l-6,10.7h-6.6l-5.94-10.7V42.53H18.55V0H11.33V42.53H0V52H29.37V61.5H19.13V95.3H8.87V61.5H0v43.28H29.43v9.49H11.33v7.6H26.8v9.49H11.33v16.72H0V220H220.5V148.27h-.11a6.39,6.39,0,0,1-.48-12.77h.59v-93H194.71V0h-7.23V42.54h-9L165.16,20.77V42.54H154.91V0h-7.12V42.54H137.53V0H123.16A16.76,16.76,0,0,1,129,4.23l-7,7.24c-2-2.07-3.28-3.1-5.92-3.1a4.92,4.92,0,0,0-4,1.88c-.94,1.28-1.53,2.74-1.53,10.64s.59,9.42,1.53,10.7a4.9,4.9,0,0,0,4,1.83,5.08,5.08,0,0,0,4.22-1.7A7.47,7.47,0,0,0,121.88,27v-.49h-5.75V17.61h15.94v5.84c0,7-.94,11.12-4.1,14.47h0a16.41,16.41,0,0,1-23.2.35l-.24-.23c-4.4-4.56-4.22-10.64-4.22-17.15s-.17-12.58,4.22-17.15A15,15,0,0,1,109.89,0H84.56l15,42.53H88.77l-2-6.44H73.91l-2.06,6.44H61.07L76.06,0ZM33.89,52H44.15V68.68H55V52H65.3v43.3H55V78.17H44.14V95.32H33.89Zm31.65,80.89c0,9.48-7.2,15.56-15.88,15.56h0c-8.67,0-15.76-6.07-15.76-15.56V104.81H44.14v27.84c0,4,2.12,6.33,5.51,6.33s5.63-2.31,5.63-6.33V104.81H65.54Zm35-18.62H90.28v33.82H80V114.29H69.78v-9.48h30.76Zm.1-52.78H82.53v7.24H98v9.48H82.53v7.6h18.11v9.49H72.28V52h28.36Zm35.74,71.4c0,9.48-7.21,15.56-15.88,15.56h0c-8.67,0-15.77-6.07-15.77-15.56V104.81H115v27.84c0,4,2.12,6.33,5.51,6.33s5.63-2.31,5.63-6.33V104.81h10.25Zm27.88,15.2L156.88,132h-3.46v16.12H143.17v-43.3h16.52c9.26,0,14.24,6.81,14.24,13.92a12.49,12.49,0,0,1-6.8,11.31l9,18.06Zm44.47-33.82h-18.1v7.24h15.46V131H190.62v7.59h18.1v9.5H180.37v-43.3h28.36Z"/></g></g></svg>
