<svg id="ÉåÉCÉÑÅ_2" data-name="ÉåÉCÉÑÅ[ 2" xmlns="http://www.w3.org/2000/svg" viewBox="0 0 136.55 123.62"><defs><style>.cls-1,.cls-5{fill:#1d1d1b;}.cls-2{fill:#999;}.cls-3{fill:#343434;}.cls-4{fill:gray;}.cls-5{stroke:#1d1d1b;stroke-miterlimit:10;stroke-width:0.04px;}</style></defs><path class="cls-1" d="M36.3,118.43v-.55H38v.55h-.54v2.51c0,1.13-.82,1.38-1.52,1.38-1.26,0-1.58-.64-1.58-1.38v-2.51h-.55v-.55h1.71v.55H35V121c0,.62.39.83.88.83.65,0,.91-.27.91-.89v-2.47Z"/><path class="cls-1" d="M39.64,119.58a1.71,1.71,0,0,1,1-.42.77.77,0,0,1,.8.86v1.7H42v.53H40.87v-2c0-.39-.11-.55-.35-.55a1.57,1.57,0,0,0-.88.38v1.63h.52v.53H38.51v-.53H39v-2H38.5v-.53h1.14Z"/><path class="cls-1" d="M43.18,119.74h-.49v-.53h1.09v2.51h.48v.53H42.69v-.53h.49Zm.65-1.57a.36.36,0,1,1-.72,0,.36.36,0,0,1,.72,0Z"/><path class="cls-1" d="M45.19,119.74h-.54v-.53h1.54v.53h-.4l.65,1.72.66-1.72h-.43v-.53h1.5v.53H47.7l-1,2.56h-.53Z"/><path class="cls-1" d="M49.09,120.88a1,1,0,0,0,1,.93,1.17,1.17,0,0,0,1-.49l.53.23a1.76,1.76,0,0,1-1.53.79,1.61,1.61,0,1,1-.09-3.22,1.64,1.64,0,0,1,1.62,1.76Zm1.95-.44a1,1,0,0,0-1-.84.94.94,0,0,0-.93.84Z"/><path class="cls-1" d="M52.83,119.74h-.61v-.53h1.09v.68h0a1,1,0,0,1,1-.73h.39v.6h-.32c-.7,0-.91.4-.91,1.09v.87h.65v.53H52.23v-.53h.6Z"/><path class="cls-1" d="M55.46,121.21H56v.1c0,.3.33.49.73.49s.62-.15.62-.38c0-.57-1.07-.21-1.64-.79a.79.79,0,0,1-.24-.58,1,1,0,0,1,1.07-.89,1.58,1.58,0,0,1,.74.17v-.12h.52v1h-.52V120a.8.8,0,0,0-.71-.38c-.32,0-.54.15-.54.38,0,.51,1.18.21,1.68.71a.9.9,0,0,1,.26.63c0,.56-.47.93-1.17.93a1.35,1.35,0,0,1-.8-.22v.17h-.53Z"/><path class="cls-1" d="M59.21,119.74h-.48v-.53h1.08v2.51h.49v.53H58.73v-.53h.48Zm.65-1.57a.36.36,0,1,1-.72,0,.36.36,0,0,1,.72,0Z"/><path class="cls-1" d="M60.78,119.21h.39v-.47l.6-.55v1h.56v.53h-.56v1.76c0,.29.27.28.56.18v.54a1.7,1.7,0,0,1-.44.08.64.64,0,0,1-.72-.72v-1.84h-.39Z"/><path class="cls-1" d="M63.57,119.74h-.51v-.53h1.51v.53h-.36l.65,1.68.65-1.68H65.1v-.53h1.48v.53h-.46l-1.5,3.88h-1v-.53h.6l.37-.9Z"/><path class="cls-1" d="M70.06,119.12a1.61,1.61,0,1,1-1.6,1.61A1.56,1.56,0,0,1,70.06,119.12Zm0,2.64a1,1,0,1,0-1-1A1,1,0,0,0,70.06,121.76Z"/><path class="cls-1" d="M72.88,119.74h-.44v-.53h.44v-.55a.78.78,0,0,1,.81-.87.75.75,0,0,1,.79.7l-.53.08c0-.2-.1-.29-.23-.29s-.23.12-.23.33v.6H74v.53h-.51v2h.58v.53H72.45v-.53h.43Z"/><path class="cls-1" d="M79.78,119.54h-.54v-1.11h-.9v3.27h.57v.55h-1.8v-.55h.57v-3.27h-.9v1.11h-.54v-1.66h3.54Z"/><path class="cls-1" d="M80.42,121.21H81v.1c.05.3.32.49.72.49s.63-.15.63-.38c0-.57-1.07-.21-1.65-.79a.83.83,0,0,1-.24-.58,1,1,0,0,1,1.07-.89,1.56,1.56,0,0,1,.74.17v-.12h.53v1h-.53V120a.79.79,0,0,0-.71-.38c-.32,0-.53.15-.53.38,0,.51,1.17.21,1.67.71a.9.9,0,0,1,.26.63c0,.56-.47.93-1.17.93a1.32,1.32,0,0,1-.79-.22v.17h-.54Z"/><path class="cls-1" d="M86.84,122.25H85.71v-.35a1.6,1.6,0,0,1-1,.4c-.55,0-.84-.3-.84-.94v-1.62h-.44v-.53h1v2.12c0,.31.13.44.36.44a1.51,1.51,0,0,0,.87-.38v-1.65h-.52v-.53h1.13v2.51h.52Z"/><path class="cls-1" d="M88.11,118.41h-.55v-.53h1.15v2.73l1.14-.9h-.51v-.49H91v.49h-.47l-1.14,1,1.08,1.07H91v.53h-.77l-1.54-1.53v1h.45v.53H87.55v-.53h.56Z"/><path class="cls-1" d="M95,122.25H93.86v-.35a1.65,1.65,0,0,1-1,.4c-.55,0-.84-.3-.84-.94v-1.62h-.43v-.53h1v2.12c0,.31.12.44.36.44a1.54,1.54,0,0,0,.87-.38v-1.65h-.53v-.53h1.13v2.51H95Z"/><path class="cls-1" d="M95.71,121.72h.54v-3.31h-.53v-.53h1.12v1.75a1.43,1.43,0,0,1,1.11-.51,1.48,1.48,0,0,1,1.48,1.58A1.5,1.5,0,0,1,98,122.3a1.33,1.33,0,0,1-1.09-.51h0v.46H95.71Zm2.11,0a1,1,0,0,0,1-1.08,1,1,0,0,0-1-1,1,1,0,0,0-1,1.07A1,1,0,0,0,97.82,121.77Z"/><path class="cls-1" d="M103,122.25H102v-.37a1.44,1.44,0,0,1-1,.42,1,1,0,0,1-1-1,1,1,0,0,1,1.11-1,1.59,1.59,0,0,1,.83.26v-.4c0-.43-.31-.59-.68-.59a.7.7,0,0,0-.65.36l-.57-.15a1.38,1.38,0,0,1,1.31-.71c.89,0,1.2.44,1.2.93v1.67H103Zm-1.13-1.13a1.32,1.32,0,0,0-.79-.31.53.53,0,0,0-.57.53.5.5,0,0,0,.54.5,1.29,1.29,0,0,0,.82-.36Z"/><path class="cls-1" d="M13.4,106.17h-.78v-.8h2.21l1.67,4.39,1.69-4.39h2.24v.8h-.78V111h.78v.8H18.07V111h.69v-4.82h0l-2.18,5.69h-.19l-2.16-5.68h0V111h.69v.8H12.62V111h.78Z"/><path class="cls-1" d="M23.21,107.19a2.36,2.36,0,1,1-2.35,2.36A2.29,2.29,0,0,1,23.21,107.19Zm0,3.87a1.51,1.51,0,1,0-1.4-1.51A1.43,1.43,0,0,0,23.2,111.06Z"/><path class="cls-1" d="M31,111.78H29.39v-.51a2.43,2.43,0,0,1-1.46.59c-.81,0-1.23-.45-1.23-1.38V108.1h-.64v-.78h1.52v3.11c0,.45.19.65.53.65a2.17,2.17,0,0,0,1.28-.57V108.1h-.77v-.78h1.65V111H31Z"/><path class="cls-1" d="M33.37,107.86a2.58,2.58,0,0,1,1.53-.61,1.12,1.12,0,0,1,1.17,1.26V111h.76v.78H35.18v-2.92c0-.57-.16-.81-.52-.81a2.31,2.31,0,0,0-1.29.57V111h.77v.78H31.72V111h.77v-2.9H31.7v-.78h1.67Z"/><path class="cls-1" d="M37.21,107.32h.58v-.69l.89-.8v1.49h.82v.78h-.82v2.57c0,.44.39.42.82.27v.79a2.15,2.15,0,0,1-.65.13.94.94,0,0,1-1.06-1.06v-2.7h-.58Z"/><path class="cls-1" d="M44.81,111.78H43.26v-.55a2.1,2.1,0,0,1-1.43.63,1.45,1.45,0,0,1-1.51-1.42A1.52,1.52,0,0,1,41.94,109a2.3,2.3,0,0,1,1.22.38v-.58c0-.64-.46-.86-1-.86a1,1,0,0,0-1,.53l-.84-.23a2,2,0,0,1,1.93-1c1.3,0,1.75.65,1.75,1.37V111h.76Zm-1.65-1.66a1.86,1.86,0,0,0-1.15-.45.79.79,0,0,0-.85.77.73.73,0,0,0,.8.73,1.84,1.84,0,0,0,1.2-.52Z"/><path class="cls-1" d="M46.18,108.1h-.7v-.78h1.59V111h.71v.78h-2.3V111h.7Zm1-2.3a.53.53,0,1,1-.53-.53A.53.53,0,0,1,47.14,105.8Z"/><path class="cls-1" d="M50.17,107.86a2.58,2.58,0,0,1,1.52-.61,1.13,1.13,0,0,1,1.18,1.26V111h.76v.78H52v-2.92c0-.57-.16-.81-.52-.81a2.31,2.31,0,0,0-1.29.57V111h.77v.78H48.52V111h.77v-2.9H48.5v-.78h1.67Z"/><path class="cls-1" d="M57.15,109.46h.79V110a1.76,1.76,0,0,0,1.49,1.06A1.08,1.08,0,0,0,60.57,110c0-1.25-2-.82-3-1.82a1.55,1.55,0,0,1-.43-1.16A1.73,1.73,0,0,1,59,105.26a2.38,2.38,0,0,1,1.44.5v-.42h.79v1.93h-.79v-.44a1.55,1.55,0,0,0-1.36-.75c-.66,0-1.08.33-1.08.83a.74.74,0,0,0,.22.54c.5.5,2,.42,2.78,1.17a2,2,0,0,1,.55,1.37,1.91,1.91,0,0,1-2,1.89,2.26,2.26,0,0,1-1.58-.63v.53h-.79Z"/><path class="cls-1" d="M66.53,109h-.79a1.13,1.13,0,0,0-1.18-1,1.36,1.36,0,0,0-1.33,1.51,1.41,1.41,0,0,0,2.71.73l.72.34a2.14,2.14,0,0,1-2.09,1.34,2.36,2.36,0,0,1-.09-4.72,1.94,1.94,0,0,1,1.26.43v-.3h.79Z"/><path class="cls-1" d="M68.1,108.1h-.71v-.78H69V111h.71v.78H67.39V111h.71Zm1-2.3a.53.53,0,0,1-.53.53.53.53,0,0,1,0-1.06A.53.53,0,0,1,69.06,105.8Z"/><path class="cls-1" d="M71.15,109.77a1.48,1.48,0,0,0,1.53,1.37,1.75,1.75,0,0,0,1.45-.73l.77.34a2.55,2.55,0,0,1-2.23,1.16,2.36,2.36,0,1,1-.15-4.72,2.4,2.4,0,0,1,2.38,2.58Zm2.86-.65a1.53,1.53,0,0,0-1.47-1.22,1.37,1.37,0,0,0-1.36,1.22Z"/><path class="cls-1" d="M77.34,107.86a2.58,2.58,0,0,1,1.53-.61A1.12,1.12,0,0,1,80,108.51V111h.76v.78H79.15v-2.92c0-.57-.16-.81-.52-.81a2.31,2.31,0,0,0-1.29.57V111h.77v.78H75.69V111h.77v-2.9h-.79v-.78h1.67Z"/><path class="cls-1" d="M85.56,109h-.8a1.18,1.18,0,0,0-.38-.74,1.21,1.21,0,0,0-.8-.27,1.35,1.35,0,0,0-1.32,1.51,1.41,1.41,0,0,0,2.7.73l.73.34a2.15,2.15,0,0,1-2.1,1.34,2.36,2.36,0,0,1-.08-4.72,1.91,1.91,0,0,1,1.25.43v-.3h.8Z"/><path class="cls-1" d="M87.33,109.77a1.47,1.47,0,0,0,1.53,1.37,1.75,1.75,0,0,0,1.44-.73l.78.34a2.58,2.58,0,0,1-2.24,1.16,2.36,2.36,0,1,1-.14-4.72,2.41,2.41,0,0,1,2.38,2.58Zm2.85-.65a1.53,1.53,0,0,0-1.47-1.22,1.38,1.38,0,0,0-1.36,1.22Z"/><path class="cls-1" d="M100.37,109.63a3,3,0,0,1-3.1,2.25,3.11,3.11,0,0,1-3.21-3.3,3.06,3.06,0,0,1,3.19-3.32,3.38,3.38,0,0,1,2.11.69v-.58h.83v2.06h-.83a2.23,2.23,0,0,0-4.25,1.12,2.23,2.23,0,0,0,4.42.62Z"/><path class="cls-1" d="M102.15,109.77a1.48,1.48,0,0,0,1.53,1.37,1.75,1.75,0,0,0,1.45-.73l.77.34a2.55,2.55,0,0,1-2.23,1.16,2.36,2.36,0,1,1-.15-4.72,2.4,2.4,0,0,1,2.38,2.58Zm2.86-.65a1.53,1.53,0,0,0-1.47-1.22,1.37,1.37,0,0,0-1.36,1.22Z"/><path class="cls-1" d="M108.34,107.86a2.58,2.58,0,0,1,1.53-.61,1.12,1.12,0,0,1,1.17,1.26V111h.76v.78h-1.65v-2.92c0-.57-.16-.81-.52-.81a2.31,2.31,0,0,0-1.29.57V111h.77v.78h-2.42V111h.77v-2.9h-.79v-.78h1.67Z"/><path class="cls-1" d="M112.18,107.32h.58v-.69l.89-.8v1.49h.82v.78h-.82v2.57c0,.44.39.42.82.27v.79a2.15,2.15,0,0,1-.65.13.94.94,0,0,1-1.06-1.06v-2.7h-.58Z"/><path class="cls-1" d="M116.08,109.77a1.47,1.47,0,0,0,1.53,1.37,1.73,1.73,0,0,0,1.44-.73l.78.34a2.57,2.57,0,0,1-2.24,1.16,2.36,2.36,0,1,1-.14-4.72,2.4,2.4,0,0,1,2.38,2.58Zm2.85-.65a1.51,1.51,0,0,0-1.46-1.22,1.37,1.37,0,0,0-1.36,1.22Z"/><path class="cls-1" d="M121.4,108.1h-.9v-.78h1.6v1h0a1.51,1.51,0,0,1,1.41-1.07h.57v.88h-.47c-1,0-1.34.58-1.34,1.6V111h1v.78h-2.73V111h.88Z"/><polygon class="cls-2" points="94.52 66.52 103.66 44.02 105.04 44.02 112.19 61.63 116.08 52.05 106.95 29.57 101.75 29.57 84.05 73.13 119.27 73.13 121.96 66.52 94.52 66.52"/><polygon class="cls-3" points="81.1 14.45 92.02 41.33 95.91 31.75 83.01 0 77.81 0 66.12 28.77 77.73 57.35 74 66.52 30.41 66.52 27.72 73.13 79.1 73.13 85.51 57.35 73.9 28.77 79.72 14.45 81.1 14.45"/><polygon class="cls-4" points="22.88 73.13 34.65 44.14 36.03 44.14 39.68 53.12 44.57 53.12 53.25 31.75 54.63 31.75 65.03 57.35 65.03 57.35 68.92 47.77 56.54 17.3 51.34 17.3 42.13 39.99 37.94 29.69 32.74 29.69 15.09 73.13 22.88 73.13"/><path class="cls-1" d="M2.07,88.21a6.25,6.25,0,0,1-1,1.19c-.12.11-.18.16-.24.16s-.13-.07-.27-.22A3.27,3.27,0,0,0,0,88.79a6.48,6.48,0,0,0,1.58-2.08,2.64,2.64,0,0,0,.25-.7c.4.06.82.14,1.13.21.12,0,.16.07.16.14a.23.23,0,0,1-.1.19.74.74,0,0,0-.2.29l-.18.37H3.88c1,0,1.32,0,1.39,0s.13,0,.13.12v.78c0,.13,0,.14-.13.14s-.39,0-1.32,0c.17.34.3.65.46,1.06,0,.12,0,.15-.15.19l-.83.17c-.18,0-.19,0-.22-.1a12.23,12.23,0,0,0-.48-1.32Zm1.1,1.9c.84,0,1.09,0,1.17,0s.12,0,.12.13v.87c0,.12,0,.13-.12.13s-.33,0-1.17,0H3.09v2.34c.45-.15.89-.32,1.34-.51,0,.24,0,.49,0,.77s0,.42-.32.55c-.93.36-1.88.7-2.91,1a.87.87,0,0,0-.37.19.25.25,0,0,1-.19.08c-.06,0-.11-.07-.14-.18a9,9,0,0,1-.32-1.14,10.71,10.71,0,0,0,1.09-.23l.64-.17V91.19H1.84c-.84,0-1.1,0-1.17,0s-.13,0-.13-.13v-.87c0-.12,0-.13.13-.13s.33,0,1.17,0Zm4.37,4.24s-.08.07-.11.07-.06,0-.09-.1A11.54,11.54,0,0,0,6.2,92.65,5.16,5.16,0,0,1,4,96.73c-.14.1-.21.15-.28.15s-.13-.06-.27-.21a3,3,0,0,0-.73-.56c1.92-1.27,2.33-2.16,2.33-4.8,0-1,0-1.43,0-1.5s0-.13.13-.13.34,0,1.22,0H8c.89,0,1.18,0,1.25,0s.13,0,.13.13,0,.54,0,1.47v3.8c0,.19,0,.33.07.39a.44.44,0,0,0,.27.07.34.34,0,0,0,.32-.17A4.14,4.14,0,0,0,10.1,94a2.83,2.83,0,0,0,.7.29c.3.08.3.12.27.44,0,.95-.14,1.36-.37,1.61a1.51,1.51,0,0,1-1.16.34,1.94,1.94,0,0,1-1-.16.92.92,0,0,1-.34-.82V93.76Zm-.72-6.14c-.18.29-.38.6-.61.91-.12.14-.18.21-.24.21s-.14-.07-.28-.19a2.74,2.74,0,0,0-.64-.41,6.28,6.28,0,0,0,1.28-2A3.06,3.06,0,0,0,6.51,86a10.43,10.43,0,0,1,1.09.22c.13,0,.18.07.18.15s0,.12-.12.19a1.3,1.3,0,0,0-.19.38l-.12.26H9.11c1.11,0,1.5,0,1.57,0s.13,0,.13.12v.78c0,.13,0,.14-.13.14s-.46,0-1.57,0h-.3a5.23,5.23,0,0,1,.44.81c0,.11,0,.14-.13.18l-.82.17c-.18,0-.19,0-.24-.1a6.54,6.54,0,0,0-.52-1.06ZM6.76,91.9c0-.05.08-.07.12-.07s.07,0,.12.08a14.22,14.22,0,0,1,1.15,1.56v-2.7H6.26v.6c0,.36,0,.7,0,1Z"/><path class="cls-1" d="M12.59,95.14a16.83,16.83,0,0,0,1-2.89,4.89,4.89,0,0,0,.7.56c.3.21.3.22.22.56a22.27,22.27,0,0,1-1,2.7,1.68,1.68,0,0,0-.16.46c0,.09,0,.16-.13.16a.43.43,0,0,1-.22-.06,6.49,6.49,0,0,1-1-.6A6.66,6.66,0,0,0,12.59,95.14Zm.11-5.89c.08-.11.13-.12.23-.06a10,10,0,0,1,1.69,1.2.12.12,0,0,1,.05.1.2.2,0,0,1-.05.13l-.53.74c-.06.08-.1.11-.13.11s-.06,0-.11-.06a8.73,8.73,0,0,0-1.66-1.29c-.06,0-.08-.06-.08-.1a.23.23,0,0,1,.07-.13Zm.49-3c.1-.12.13-.12.24-.06A8.08,8.08,0,0,1,15,87.43c.05,0,.07.07.07.11a.29.29,0,0,1-.08.14l-.52.73c-.08.12-.13.14-.22,0a7.62,7.62,0,0,0-1.63-1.34c-.11-.05-.11-.08,0-.21Zm7.55,4.25a.53.53,0,0,0,.27,0l.14,0c.11,0,.19.06.49.34s.33.36.33.48,0,.13-.13.2a.92.92,0,0,0-.24.38,9.55,9.55,0,0,1-1.45,2.44,8.16,8.16,0,0,0,2.78,1.32,3.35,3.35,0,0,0-.46.79c-.09.22-.13.31-.23.31a.81.81,0,0,1-.27-.07,8.51,8.51,0,0,1-2.62-1.52,8.09,8.09,0,0,1-2.43,1.54,1.37,1.37,0,0,1-.27.08c-.1,0-.15-.08-.26-.28a2.61,2.61,0,0,0-.51-.72,8.59,8.59,0,0,0,2.62-1.45A8.61,8.61,0,0,1,17,91.59h-.21c0,.64-.1,1.22-.17,1.65a9,9,0,0,1-1.19,3.2c-.09.16-.15.23-.21.23s-.12-.06-.25-.18a3,3,0,0,0-.75-.54,6.53,6.53,0,0,0,1.25-3,22.63,22.63,0,0,0,.21-3.5c0-1.15,0-1.7,0-1.77s0-.14.13-.14.57,0,1.62,0h1A10.68,10.68,0,0,0,18.3,86c.44,0,.83,0,1.22.08.11,0,.17.06.17.13a1.47,1.47,0,0,1-.08.3,6.18,6.18,0,0,0-.05,1h2a.63.63,0,0,0,.25,0,.24.24,0,0,1,.13-.05c.11,0,.19.06.47.28s.36.32.36.42a.27.27,0,0,1-.11.21,1.67,1.67,0,0,0-.22.34,8.53,8.53,0,0,1-.63,1.07c-.12.18-.16.26-.25.26a1,1,0,0,1-.27-.12,3.49,3.49,0,0,0-.76-.24,5,5,0,0,0,.63-1H19.56v1.87Zm-3.93-.91c0,.3,0,.6,0,.91h1.59V88.66H16.81Zm1.36,2a6.51,6.51,0,0,0,1.13,1.9,6.36,6.36,0,0,0,1.12-1.9Z"/><path class="cls-1" d="M25.84,90.32c-1.06,0-1.43,0-1.5,0s-.13,0-.13-.14v-1c0-.11,0-.12.13-.12s.44,0,1.5,0h2.7c0-.49,0-1,.05-1.59a9.28,9.28,0,0,0-.05-1.37,12.82,12.82,0,0,1,1.35.1c.12,0,.21.08.21.16a.47.47,0,0,1-.07.25,2,2,0,0,0-.1.82c0,.58,0,1.12-.07,1.63h3c1.06,0,1.43,0,1.5,0s.13,0,.13.12v1c0,.13,0,.14-.13.14s-.44,0-1.5,0H30.08a7.84,7.84,0,0,0,4.71,5.13,3.75,3.75,0,0,0-.68.89c-.11.2-.16.29-.25.29a.78.78,0,0,1-.27-.12,9,9,0,0,1-4.19-4.75A8.06,8.06,0,0,1,29,92.89a7.78,7.78,0,0,1-3.77,3.67.94.94,0,0,1-.28.1c-.1,0-.15-.08-.28-.28a3.59,3.59,0,0,0-.67-.74,6.78,6.78,0,0,0,3.82-3.24,7.27,7.27,0,0,0,.64-2.08Z"/><path class="cls-1" d="M37.5,93.69c-1,0-1.41,0-1.48,0s-.12,0-.12-.13v-.91c0-.11,0-.13.12-.13s.43,0,1.48,0h3.09a7.47,7.47,0,0,0-.07-1l.69.07a7.26,7.26,0,0,0,1.07-.85H39.74c-1.09,0-1.47,0-1.52,0s-.13,0-.13-.11v-.83c0-.12,0-.13.13-.13s.43,0,1.52,0h3.19a.87.87,0,0,0,.28,0c.06,0,.09,0,.15,0s.22.1.51.38.33.4.33.51a.2.2,0,0,1-.14.19,2.64,2.64,0,0,0-.57.38,12.64,12.64,0,0,1-1.65,1.23v.19h2.95c1.05,0,1.4,0,1.47,0s.13,0,.13.13v.91c0,.12,0,.13-.13.13s-.42,0-1.47,0H41.84v.76c0,.29,0,.72,0,1a1,1,0,0,1-.38,1,3.3,3.3,0,0,1-1.8.26c-.37,0-.37,0-.46-.34a3.52,3.52,0,0,0-.35-.86,10.76,10.76,0,0,0,1.26.07c.33,0,.45-.08.45-.41V93.69Zm.73-7.54c.15-.06.19,0,.26.06a9.26,9.26,0,0,1,.79,1.22c0,.12,0,.13-.11.19l-.78.28h2.45a8.81,8.81,0,0,0-.67-1.47c-.07-.12,0-.13.11-.18l.77-.23c.15,0,.18,0,.24.07a9.7,9.7,0,0,1,.65,1.37c0,.1,0,.11-.13.17L41,87.9h1.82a8.22,8.22,0,0,0,.57-1.19,3.76,3.76,0,0,0,.18-.62,6,6,0,0,1,1.17.35c.1,0,.16.11.16.18a.24.24,0,0,1-.12.18.78.78,0,0,0-.22.27c-.17.3-.31.55-.48.83h.3c1.1,0,1.49,0,1.56,0s.14,0,.14.13,0,.29,0,.63v.55c0,1.06,0,1.25,0,1.32s0,.14-.14.14h-.93c-.12,0-.13,0-.13-.14V89H37.38v1.56c0,.11,0,.13-.13.13h-.93c-.13,0-.14,0-.14-.13s0-.27,0-1.33v-.44c0-.44,0-.65,0-.73s0-.13.14-.13.46,0,1.55,0h.32a7.3,7.3,0,0,0-.75-1.32c-.07-.1-.06-.12.08-.17Z"/><path class="cls-1" d="M56.38,90.67a12.14,12.14,0,0,0-.08-1.53c.45,0,.91,0,1.31.09.12,0,.19.07.19.13a.55.55,0,0,1-.07.25,3.64,3.64,0,0,0-.07,1.18v3.6c0,1.3,0,2,0,2s0,.13-.13.13H56.51c-.12,0-.13,0-.13-.13v-.74H49.9v.81c0,.12,0,.13-.13.13h-1c-.13,0-.14,0-.14-.13s0-.74,0-2V90.71a10.43,10.43,0,0,0-.08-1.52,11.1,11.1,0,0,1,1.32.09c.11,0,.19.07.19.13a1.27,1.27,0,0,1-.07.24,3.2,3.2,0,0,0-.08,1.06V94.5h2.5V88a12.76,12.76,0,0,0-.1-1.79c.44,0,1,0,1.36.08.1,0,.17.07.17.13a.55.55,0,0,1-.07.25A6.4,6.4,0,0,0,53.7,88v6.5h2.68Z"/><path class="cls-1" d="M60.79,92.76c-1,0-1.4,0-1.47,0s-.12,0-.12-.13v-.89c0-.14,0-.15.12-.15s.43,0,1.47,0h.38V88.1a9.22,9.22,0,0,0-.07-1.48c.4.07.8.16,1.26.28a25.61,25.61,0,0,0,4.24-.62,3.25,3.25,0,0,0,.87-.29,6.74,6.74,0,0,1,.84.85.39.39,0,0,1,.1.23c0,.09-.09.14-.22.14a2.26,2.26,0,0,0-.52.07,42.58,42.58,0,0,1-5.26.73v.81h5c1.14,0,1.53,0,1.6,0s.14,0,.14.14v.9c0,.11,0,.12-.14.12s-.46,0-1.6,0H67v1.7h1.13c1,0,1.39,0,1.46,0s.13,0,.13.15v.89c0,.12,0,.13-.13.13s-.42,0-1.46,0H65V95.1h2.38v-.62a5.29,5.29,0,0,0-.08-1.16,11.13,11.13,0,0,1,1.24.1c.08,0,.15,0,.15.12a.59.59,0,0,1-.05.23,2.06,2.06,0,0,0-.08.79v1.2c0,.59,0,.85,0,.91s0,.13-.12.13h-1c-.1,0-.11,0-.11-.13v-.49H61.48v.49c0,.12,0,.13-.15.13h-.95c-.12,0-.13,0-.13-.13s0-.31,0-.88V94.54a5.94,5.94,0,0,0-.07-1.22c.46,0,.83.05,1.23.08.12,0,.16.06.16.13a.61.61,0,0,1-.07.25,2.8,2.8,0,0,0,0,.68v.64h2.3V92.76Zm5-1.12v-1.7H62.41v1.7Z"/><path class="cls-1" d="M73.32,87.93l-1,.19c-.37,0-.38,0-.53-.3a2.34,2.34,0,0,0-.4-.63,12.92,12.92,0,0,0,3.24-.78,3.22,3.22,0,0,0,.48-.29,6.46,6.46,0,0,1,.74.74c.07.08.11.12.11.21s-.1.14-.22.14a1.37,1.37,0,0,0-.4.1,7.94,7.94,0,0,1-.9.32v1.63h.1c.92,0,1.23,0,1.3,0s.13,0,.13.13v.84c0,.12,0,.13-.13.13s-.38,0-1.27,0a6.77,6.77,0,0,0,1.5,1.81,4.06,4.06,0,0,0-.43.91c0,.13-.08.19-.13.19s-.12-.06-.2-.18a8.42,8.42,0,0,1-.91-1.47c0,2.88.07,4.86.07,5.12s0,.12-.13.12h-1c-.12,0-.13,0-.13-.12s.07-2.24.09-4.88A8.85,8.85,0,0,1,72,94.48c-.08.11-.15.18-.21.18s-.09,0-.14-.2a3.38,3.38,0,0,0-.48-.89,8.49,8.49,0,0,0,2-3.26h-.29c-.92,0-1.23,0-1.3,0s-.13,0-.13-.13v-.84c0-.11,0-.13.13-.13s.38,0,1.3,0h.49Zm6.12,4.69V87.88a12.41,12.41,0,0,0-.1-1.78c.44,0,.84,0,1.24.08.13,0,.19.06.19.12a.76.76,0,0,1-.06.25,5.24,5.24,0,0,0-.07,1.31v4.51l1.12-.26c.1,0,.1,0,.13.12l.15.91c0,.11,0,.12-.12.15l-1.28.23v1.1c0,1.32,0,2,0,2s0,.13-.13.13h-1c-.11,0-.12,0-.12-.13s0-.72,0-2v-.86l-1.9.36L76,94.44c-.11,0-.12,0-.14-.12l-.16-.89c0-.12,0-.13.1-.15s.48-.07,1.51-.25Zm-2.61-3c.11-.11.13-.09.23,0a11.28,11.28,0,0,1,1.66,1.54c.08.09.07.14,0,.25l-.58.6a.2.2,0,0,1-.12.08s-.06,0-.11-.06a9.73,9.73,0,0,0-1.63-1.64c-.09-.08-.09-.1,0-.22Zm.34-2.69c.1-.09.12-.1.22,0A10,10,0,0,1,79,88.35c0,.05.06.07.06.11s0,.07-.08.11l-.58.59c-.11.13-.13.14-.21,0a8.34,8.34,0,0,0-1.63-1.54c-.1-.09-.09-.11,0-.23Z"/><path class="cls-1" d="M85,93.69c-1,0-1.4,0-1.48,0s-.13,0-.13-.13v-.91c0-.11,0-.13.13-.13s.43,0,1.48,0h3.1a9.44,9.44,0,0,0-.08-1l.69.07a7.26,7.26,0,0,0,1.07-.85H87.2c-1.09,0-1.47,0-1.52,0s-.13,0-.13-.11v-.83c0-.12,0-.13.13-.13s.43,0,1.52,0h3.19a.87.87,0,0,0,.28,0c.06,0,.09,0,.15,0s.22.1.51.38.33.4.33.51a.2.2,0,0,1-.14.19,2.64,2.64,0,0,0-.57.38,12.64,12.64,0,0,1-1.65,1.23v.19h3c1,0,1.4,0,1.47,0s.13,0,.13.13v.91c0,.12,0,.13-.13.13s-.42,0-1.47,0h-3v.76c0,.29,0,.72,0,1a1,1,0,0,1-.38,1,3.3,3.3,0,0,1-1.8.26c-.37,0-.37,0-.46-.34a3.18,3.18,0,0,0-.36-.86,11.05,11.05,0,0,0,1.27.07c.32,0,.46-.08.46-.41V93.69Zm.73-7.54c.15-.06.19,0,.26.06a9.26,9.26,0,0,1,.79,1.22c.05.12.05.13-.11.19l-.78.28H88.3a8.81,8.81,0,0,0-.67-1.47c-.07-.12,0-.13.11-.18l.77-.23c.15,0,.18,0,.24.07a8.71,8.71,0,0,1,.65,1.37c0,.1,0,.11-.13.17l-.77.27h1.82a8.22,8.22,0,0,0,.57-1.19,3.76,3.76,0,0,0,.18-.62,5.77,5.77,0,0,1,1.17.35c.1,0,.16.11.16.18a.24.24,0,0,1-.12.18.78.78,0,0,0-.22.27c-.16.3-.31.55-.48.83h.3c1.1,0,1.49,0,1.56,0s.14,0,.14.13,0,.29,0,.63v.55c0,1.06,0,1.25,0,1.32s0,.14-.14.14h-.93c-.12,0-.13,0-.13-.14V89H84.84v1.56c0,.11,0,.13-.13.13h-.93c-.13,0-.14,0-.14-.13s0-.27,0-1.33v-.44c0-.44,0-.65,0-.73s0-.13.14-.13.46,0,1.55,0h.32a7.3,7.3,0,0,0-.75-1.32c-.07-.1-.06-.12.08-.17Z"/><path class="cls-5" d="M97.94,87.87a6.52,6.52,0,0,0-.06-1.13h1.33a6.07,6.07,0,0,0-.07,1.13v1.46l4.35-.55a2.57,2.57,0,0,0,.79-.18l.73.64a2.27,2.27,0,0,0-.29.53A8.18,8.18,0,0,1,101.94,93a3,3,0,0,0-1-.77,6.36,6.36,0,0,0,2.08-1.85,3.15,3.15,0,0,0,.35-.57l-.6.11-3.68.49V93c0,1,0,1.23.26,1.42s.65.25,1.53.25a12.46,12.46,0,0,0,3.42-.44l.06,1.3c-.31,0-.4,0-.69,0a24.51,24.51,0,0,1-2.79.2c-1.5,0-2.17-.16-2.57-.6s-.41-.71-.41-2V90.54l-1.09.15a10.62,10.62,0,0,0-1.31.23L95.4,89.7h.23a9.79,9.79,0,0,0,1.11-.09l1.2-.16Z"/><path class="cls-5" d="M106.92,94.52a10.29,10.29,0,0,0,3.36-.86,7.79,7.79,0,0,0,3.4-2.77,9.7,9.7,0,0,0,1.2-2.31,4,4,0,0,0,1,.94A10,10,0,0,1,112.31,94,11.66,11.66,0,0,1,108,95.66a6.12,6.12,0,0,0-.72.19Zm.86-7.08a14.79,14.79,0,0,1,2.88,2.18l-.82,1A12.71,12.71,0,0,0,107,88.35Z"/><path class="cls-5" d="M121.72,86.54c-.12.21-.12.21-.36.7a3.89,3.89,0,0,1-.31.57l.47,0,2.72,0a2.58,2.58,0,0,0,.86-.12l.67.66a2.45,2.45,0,0,0-.35.76,18.81,18.81,0,0,1-1.49,3.15,11.1,11.1,0,0,1-5.14,4.26,3.38,3.38,0,0,0-.79-1,11,11,0,0,0,2.28-1.18,7.86,7.86,0,0,0,1.91-1.68,13.47,13.47,0,0,0-2.43-1.72l.74-.84a15.61,15.61,0,0,1,2.39,1.64,12.56,12.56,0,0,0,1.38-2.91l-3.71,0a12.73,12.73,0,0,1-2.69,3,3.18,3.18,0,0,0-1-.77,9.82,9.82,0,0,0,2.89-3.27,5.86,5.86,0,0,0,.66-1.56Z"/><path class="cls-5" d="M126.88,90.69a12.79,12.79,0,0,0,1.76.08h6.19a11.18,11.18,0,0,0,1.7-.07V92a15.53,15.53,0,0,0-1.72-.06h-6.16a15,15,0,0,0-1.77.06Z"/></svg>