<svg id="Layer_1" data-name="Layer 1" xmlns="http://www.w3.org/2000/svg" viewBox="0 0 220.01 73.19"><defs><style>.cls-1{fill:#000;}</style></defs><g id="ロゴカラー"><path id="パス_989" data-name="パス 989" class="cls-1" d="M37.48,26.62a.12.12,0,0,1,0-.1,11.31,11.31,0,0,1,.82-2.61c.5-.72,1-1,1.53-.61s.47.93,0,1.65a11,11,0,0,1-2.17,1.67.08.08,0,0,1-.11,0m-5.81,0A10.64,10.64,0,0,1,29.5,25c-.5-.72-.54-1.3,0-1.65s1-.11,1.54.61a11.31,11.31,0,0,1,.82,2.61c0,.05,0,.11-.09.11a.07.07,0,0,1-.06,0m5.81-9.06a.12.12,0,0,1,0-.1,11.31,11.31,0,0,1,.82-2.61c.5-.72,1-1,1.53-.61s.47.93,0,1.65a11.05,11.05,0,0,1-2.17,1.68.11.11,0,0,1-.11,0m-5.81,0a11.05,11.05,0,0,1-2.17-1.68c-.5-.72-.54-1.3,0-1.65s1-.11,1.54.61a10.85,10.85,0,0,1,.82,2.61.12.12,0,0,1,0,.1.11.11,0,0,1-.11,0m21.15,6.09a11.28,11.28,0,0,1-2.44-1.26c-.62-.61-.76-1.18-.32-1.61s1-.3,1.62.32A11.18,11.18,0,0,1,53,23.52a.11.11,0,0,1,0,.11.08.08,0,0,1-.1,0m5.4.31a.09.09,0,0,1,0-.11,11.85,11.85,0,0,1,1.46-2.57c.69-.64,1.3-.77,1.76-.29s.27,1.09-.42,1.73A11.48,11.48,0,0,1,58.33,24a.08.08,0,0,1-.11,0M55.5,17.64a.11.11,0,0,1-.1-.06,12.17,12.17,0,0,1-.89-2.82c0-.94.33-1.48,1-1.48s1,.54,1,1.48a12.17,12.17,0,0,1-.89,2.82.11.11,0,0,1-.1.06m-39.06,6a11,11,0,0,0,2.43-1.25c.63-.62.76-1.19.33-1.62s-1-.3-1.62.32a11,11,0,0,0-1.27,2.43.09.09,0,0,0,.07.12.06.06,0,0,0,.06,0M11,24a.11.11,0,0,0,0-.12A12.34,12.34,0,0,0,9.6,21.28c-.69-.64-1.31-.77-1.76-.28s-.28,1.08.42,1.73A11.86,11.86,0,0,0,10.93,24,.09.09,0,0,0,11,24m2.72-6.33a.11.11,0,0,0,.1-.06,12,12,0,0,0,.89-2.82c0-.94-.32-1.48-1-1.48s-1,.54-1,1.48a12,12,0,0,0,.88,2.82.11.11,0,0,0,.1.06m20.77-8.3a12.06,12.06,0,0,1-.87-2.75c0-.92.32-1.44,1-1.44s1,.52,1,1.44a12.06,12.06,0,0,1-.87,2.75.1.1,0,0,1-.1.06.09.09,0,0,1-.09-.06m-.76,9.28Zm1.73,0Zm1.61.3Zm-5,0Zm2.26,47.42c0-3.91-.09-9.58-.13-15.09-1.86.67-3.18,2.85-3.36,6.46a17.09,17.09,0,0,0,1.14,7.11c.11.29.36.76.23.83s-.42-.38-.55-.66a16.24,16.24,0,0,1-1.42-7.43c.08-3.36,1.3-6.52,4-7.2,0-1,0-2.06,0-3.06-2.92.69-5.37,3-6.34,6.91a12.88,12.88,0,0,0,.23,7.6c.1.28.27.8.12.84s-.35-.47-.47-.74a13,13,0,0,1-.4-7.9c.76-3.59,3.07-7,6.85-7.65,0-1.08,0-2.13,0-3.14a11.54,11.54,0,0,0-8.95,8.48,12.51,12.51,0,0,0,.17,8.3c.11.28.24.81.1.86s-.33-.46-.45-.74a13.59,13.59,0,0,1-.37-8.59,12.43,12.43,0,0,1,9.49-9.36c0-1.17,0-2.26,0-3.24a14.7,14.7,0,0,0-10.78,8.42,12.77,12.77,0,0,0-1.26,8.51c.07.3.22.82.08.86s-.34-.46-.43-.74c-.8-2.44-.33-5.7,1-8.94a15.65,15.65,0,0,1,11.34-9.17c0-.87,0-1.63,0-2.23a2.62,2.62,0,0,1-1.51-.81c-7.77,2.74-14.16,10-14.16,18.76,0,2.62,1.06,4,3.7,5.26a5.69,5.69,0,0,0,1.72,4.55,8.84,8.84,0,0,0,4.56,1.8h0c.59,2.67,3.56,3.9,6.11,3.9s5.52-1.23,6.1-3.9h0a8.84,8.84,0,0,0,4.56-1.8A5.71,5.71,0,0,0,47,58.85c2.63-1.26,3.7-2.64,3.7-5.25,0-8.82-6.39-16-14.17-18.77a2.63,2.63,0,0,1-1.51.82c0,.6,0,1.35,0,2.22A15.69,15.69,0,0,1,46.39,47c1.37,3.25,1.84,6.5,1,8.94-.09.29-.29.79-.43.75s0-.57.08-.86a12.75,12.75,0,0,0-1.26-8.51A14.68,14.68,0,0,0,35,38.94c0,1,0,2.07,0,3.24a12.4,12.4,0,0,1,9.48,9.35,13.65,13.65,0,0,1-.36,8.59c-.13.28-.32.79-.45.74s0-.57.1-.86A12.63,12.63,0,0,0,44,51.7,11.57,11.57,0,0,0,35,43.22c0,1,0,2.06,0,3.15,3.78.67,6.08,4.05,6.85,7.64a13.16,13.16,0,0,1-.4,7.9c-.12.28-.34.78-.48.74s0-.56.12-.84a12.88,12.88,0,0,0,.23-7.6C40.35,50.34,37.9,48,35,47.3c0,1,0,2,0,3.06,2.66.68,3.87,3.84,3.95,7.2A16.21,16.21,0,0,1,37.5,65c-.13.28-.43.73-.56.67s.12-.55.23-.84a17.24,17.24,0,0,0,1.15-7.11c-.19-3.61-1.5-5.78-3.36-6.45,0,5.5-.09,11.17-.13,15.08,0,1.24-.09,1.43-.22,1.43s-.2-.2-.21-1.43m5.24-33a18.94,18.94,0,0,0-2.38-.2,2.86,2.86,0,0,1-.23,1,22.18,22.18,0,0,1,3.07,1.38,8.37,8.37,0,0,1-.46-2.21m4.56,5a7.53,7.53,0,0,1-.42-2.49A4.57,4.57,0,0,1,44,34.31a21.6,21.6,0,0,0-3.46-.86,6.59,6.59,0,0,0,.47,2.6,23.94,23.94,0,0,1,3.17,2.3M29.14,35.51a22.3,22.3,0,0,1,3.07-1.38,2.59,2.59,0,0,1-.24-1,17.09,17.09,0,0,0-2.37.2,8.78,8.78,0,0,1-.46,2.21m16,3.64a20.25,20.25,0,0,1,6.4,14.57l.39.09a8.38,8.38,0,0,0,1.72.24,6.74,6.74,0,0,0,2.55-.77h0a7.14,7.14,0,0,0,7.34-.88,6.41,6.41,0,0,0,2.16-6v0h0c2.37-.28,3.54-2.52,3.54-4.92s-.42-3.39-2.48-4.82a4.56,4.56,0,0,0,.39-3.45c-1-4.28-8.55-8.11-18.07-7.7a20.11,20.11,0,0,0-9,2.57A14.91,14.91,0,0,0,36.29,31a2.59,2.59,0,0,1,.88,1.36,16.94,16.94,0,0,1,2.66.21A11.62,11.62,0,0,1,42.5,30.6a17.65,17.65,0,0,1,14.73-1.21,21.88,21.88,0,0,1,4.05,1.95,15.33,15.33,0,0,1,3.4,2.82v0s.21.26.37.49c.31.45.26.49.23.52h0c-.17,0-.81-.64-.84-.69a19.09,19.09,0,0,0-12.62-5.4c-6.23-.11-9.66,2.45-10.88,3.59a23.44,23.44,0,0,1,3.5.93,14.91,14.91,0,0,1,6.21-2,11.22,11.22,0,0,1,3.7.23,18.6,18.6,0,0,1,4.78,1.83,22.3,22.3,0,0,1,3.63,2.57,17,17,0,0,1,3,3.32v0c0,.06.21.34.36.61.3.55.25.6.22.61s0,0,0,0c-.18,0-.45-.34-.45-.35a20,20,0,0,0-11.32-7.9,11.79,11.79,0,0,0-5.84.14,13.18,13.18,0,0,0-3.32,1.3,19.74,19.74,0,0,1,3.33,1.55,6.08,6.08,0,0,1,1.6-.61,8.28,8.28,0,0,1,3.25-.12,12.59,12.59,0,0,1,6,2.56,18.51,18.51,0,0,1,4.62,5.64,4.7,4.7,0,0,1,.22.63c.17.58.11.61.09.63h0c-.1,0-.32-.36-.68-1v0c-2.6-4.64-5.8-7.1-10.07-7.75a7,7,0,0,0-4.15.49,21.54,21.54,0,0,1,3.12,2.26,5,5,0,0,1,2.31.07,9.22,9.22,0,0,1,4.07,2.48,13.8,13.8,0,0,1,3.4,5.28A10.57,10.57,0,0,1,63,48.85s0,.89-.14.9,0,0,0,0-.13-.54-.14-.67a12,12,0,0,0-3.74-7.41c-2.65-2.57-4.72-2.75-5.53-2.69l.16.16.17.18A31.28,31.28,0,0,1,61,50.24l.37.95c.32.9.26.92.23.94s-.09,0-.51-.78c-.2-.39-.4-.81-.43-.89a32.47,32.47,0,0,0-7.93-11.05,17.22,17.22,0,0,0,1,5,13.39,13.39,0,0,0,5,6.63s.3.22.52.41c.46.38.43.43.4.46s0,0,0,0a4.5,4.5,0,0,1-1.1-.54,15,15,0,0,1-3.89-4,16.12,16.12,0,0,1-2-4,11,11,0,0,1-.65-4.59v0a19.54,19.54,0,0,0-3-2.07c-1.29,5,2.75,10.94,5.87,14.15,0,0,.65.71.53.83l0,0c-.17,0-.72-.48-.79-.55a22.48,22.48,0,0,1-5.3-7.79c-1.17-3-1.49-5.21-1-7.13a20.57,20.57,0,0,0-3.43-1.6,6.81,6.81,0,0,0,.19,4.54M24.34,34.62a20.57,20.57,0,0,0-3.43,1.6c.48,1.92.17,4.18-1,7.13a22.61,22.61,0,0,1-5.3,7.79c-.08.07-.63.55-.79.55l-.05,0c-.11-.12.53-.82.53-.83,3.13-3.21,7.17-9.19,5.88-14.15a19.63,19.63,0,0,0-3,2.07v0a11,11,0,0,1-.65,4.59,16.12,16.12,0,0,1-1.95,4,15,15,0,0,1-3.89,4,4.5,4.5,0,0,1-1.1.54s0,0,0,0-.06-.08.4-.46l.52-.41a13.34,13.34,0,0,0,5-6.63,16.9,16.9,0,0,0,1-5,32.4,32.4,0,0,0-7.92,11c0,.08-.24.5-.44.89-.42.82-.48.8-.51.79s-.09-.05.23-.94l.37-1a31.6,31.6,0,0,1,7.35-10.94l.17-.17.16-.17c-.81-.05-2.88.13-5.53,2.7a11.93,11.93,0,0,0-3.73,7.4c0,.14,0,.59-.15.68l0,0c-.16,0-.14-.9-.14-.9a10.9,10.9,0,0,1,.63-2.71,14,14,0,0,1,3.4-5.28,9.19,9.19,0,0,1,4.07-2.48,5,5,0,0,1,2.31-.08,21.47,21.47,0,0,1,3.12-2.25,7.09,7.09,0,0,0-4.14-.5c-4.28.65-7.48,3.11-10.08,7.75v0a3.38,3.38,0,0,1-.68,1h0s-.09,0,.08-.63a4.88,4.88,0,0,1,.23-.64,18.58,18.58,0,0,1,4.61-5.63,12.6,12.6,0,0,1,6-2.57A8.28,8.28,0,0,1,19,35a6.06,6.06,0,0,1,1.6.6A21.43,21.43,0,0,1,23.92,34a14,14,0,0,0-3.32-1.3,11.79,11.79,0,0,0-5.84-.13,19.9,19.9,0,0,0-11.31,7.9s-.28.32-.46.35H3s-.08-.06.22-.62c.15-.27.32-.55.36-.61h0a17.41,17.41,0,0,1,3-3.33,22.42,22.42,0,0,1,3.63-2.56,18.56,18.56,0,0,1,4.77-1.84,11.49,11.49,0,0,1,3.7-.22,13.44,13.44,0,0,1,3.08.6,13.84,13.84,0,0,1,3.13,1.37,21.25,21.25,0,0,1,3.5-.93c-1.22-1.15-4.66-3.7-10.88-3.59a19,19,0,0,0-12.62,5.4s-.68.68-.85.69l0,0s-.07-.06.24-.51c.16-.23.33-.45.37-.5h0A15.07,15.07,0,0,1,8,31.34,21.88,21.88,0,0,1,12,29.39,17.65,17.65,0,0,1,26.73,30.6a11.3,11.3,0,0,1,2.67,1.93,16.94,16.94,0,0,1,2.66-.21A2.6,2.6,0,0,1,32.94,31,14.73,14.73,0,0,0,29.2,28.1a20.15,20.15,0,0,0-9.06-2.57C10.63,25.12,3.08,29,2.08,33.23a4.56,4.56,0,0,0,.39,3.45C.41,38.11,0,39.14,0,41.5s1.17,4.63,3.55,4.91h0v0a6.42,6.42,0,0,0,2.16,6,7.14,7.14,0,0,0,7.34.87h0a6.71,6.71,0,0,0,2.54.78,8.3,8.3,0,0,0,1.72-.25l.4-.08a20.19,20.19,0,0,1,6.4-14.57,6.78,6.78,0,0,0,.19-4.53M34.6,35a2,2,0,1,0-2-2,2,2,0,0,0,2,2M53.48,25a21.53,21.53,0,0,1,3.9.61,5.17,5.17,0,0,1,3.22-.63c1.49,0,3,0,4.36-1.17a2.28,2.28,0,0,0,1-1.86,2.41,2.41,0,0,0-1.08-1.57l0,0,0,0a2.43,2.43,0,0,0,.83-1.54,1.56,1.56,0,0,0-.53-1.21h0a2.45,2.45,0,0,0-3.33.2l0,0,0,0a2.31,2.31,0,0,0-1.54-.89,2.67,2.67,0,0,0-2.07,1,5.7,5.7,0,0,0-1.35,4.41A3.5,3.5,0,0,1,56.57,24c-.2.32-.45.81-.45.81h0s.08-4.78.26-5.58A5.27,5.27,0,0,1,58,16.76a5.23,5.23,0,0,0,1.92-3.58A2.54,2.54,0,0,0,59.22,11a2.43,2.43,0,0,0-1.84-.47h0v0a2.77,2.77,0,0,0-.49-1.95,1.74,1.74,0,0,0-1.36-.54h0a1.77,1.77,0,0,0-1.37.54,2.81,2.81,0,0,0-.48,1.95v0h0a2.47,2.47,0,0,0-1.84.47,2.54,2.54,0,0,0-.66,2.14A5.25,5.25,0,0,0,53,16.76a5.22,5.22,0,0,1,1.63,2.47c.17.8.24,5.22.24,5.26h0a2.08,2.08,0,0,0-.5-.81A3,3,0,0,1,54.09,22,5.58,5.58,0,0,0,53,17.87a2.36,2.36,0,0,0-1.83-1,2.33,2.33,0,0,0-1.56.87l0,0,0,0a2.58,2.58,0,0,0-1.59-.95,1.63,1.63,0,0,0-1.28.52h0a1.6,1.6,0,0,0-.57,1.24A2.6,2.6,0,0,0,47,20.16l0,0,0,0a2.23,2.23,0,0,0-.93,1.5A2.27,2.27,0,0,0,47,23.5a4.56,4.56,0,0,0,3.7.92c1.68-.1,2.25,0,2.76.53m-10.57-2.9h0l0,0a2.73,2.73,0,0,0,.64-1.81,1.62,1.62,0,0,0-.78-1.12h0a1.67,1.67,0,0,0-1.35-.29A2.64,2.64,0,0,0,40,20l0,0,0,0a2,2,0,0,0-3.32.69A9.06,9.06,0,0,0,36,25.46a8.25,8.25,0,0,1,0,1.72,2.19,2.19,0,0,1-.43.47.43.43,0,0,0-.13.27h0V22.58a.81.81,0,0,0,0-.15,4.57,4.57,0,0,1,.2-1.6,4,4,0,0,1,1.6-1.91,6,6,0,0,1,2.82-1.06,5.33,5.33,0,0,0,3.49-1.64,2.2,2.2,0,0,0,.58-1.8A2.33,2.33,0,0,0,42.92,13h0l0,0a2.7,2.7,0,0,0,.64-1.82,1.62,1.62,0,0,0-.78-1.12h0a1.67,1.67,0,0,0-1.35-.29A2.64,2.64,0,0,0,40,11l0,0,0,0a2.4,2.4,0,0,0-1.77-.61,2.3,2.3,0,0,0-1.55,1.3c-.8,1.45-.74,3.63-.71,5.07a6.43,6.43,0,0,1-.05,1.52c0,.11-.35.31-.4.34a.37.37,0,0,0-.13.27h0l0-5.35a18.16,18.16,0,0,1,.25-2.45,5.1,5.1,0,0,1,1.62-2.47A5.35,5.35,0,0,0,39.08,5a2.54,2.54,0,0,0-.67-2.13,2.4,2.4,0,0,0-1.83-.47h0v0A2.67,2.67,0,0,0,36.08.54,1.77,1.77,0,0,0,34.69,0h-.12a1.77,1.77,0,0,0-1.39.55,2.67,2.67,0,0,0-.47,1.86v0h0a2.41,2.41,0,0,0-1.84.47A2.5,2.5,0,0,0,30.19,5,5.3,5.3,0,0,0,32.1,8.62a5.24,5.24,0,0,1,1.63,2.47A20.12,20.12,0,0,1,34,13.54l0,5.35H33.9a.42.42,0,0,0-.14-.27s-.36-.23-.4-.34a7,7,0,0,1,0-1.52c0-1.44.09-3.62-.71-5.07a2.26,2.26,0,0,0-1.54-1.3,2.39,2.39,0,0,0-1.77.61l0,0v0a2.68,2.68,0,0,0-1.4-1.23,1.69,1.69,0,0,0-1.36.29h0a1.61,1.61,0,0,0-.77,1.12A2.75,2.75,0,0,0,26.35,13l0,0h0a2.39,2.39,0,0,0-1.09,1.4,2.21,2.21,0,0,0,.59,1.8,5.39,5.39,0,0,0,3.49,1.65,5.84,5.84,0,0,1,2.81,1.05,3.93,3.93,0,0,1,1.6,1.91,4.57,4.57,0,0,1,.2,1.6v5.49H33.9a.42.42,0,0,0-.14-.27s-.4-.36-.42-.47a7.62,7.62,0,0,1,0-1.72,9,9,0,0,0-.7-4.74A2.31,2.31,0,0,0,31,19.43a2.37,2.37,0,0,0-1.73.6l0,0v0a2.62,2.62,0,0,0-1.4-1.22,1.65,1.65,0,0,0-1.36.28h0a1.61,1.61,0,0,0-.77,1.12A2.7,2.7,0,0,0,26.35,22l0,0h0a2.33,2.33,0,0,0-1.08,1.4,2.17,2.17,0,0,0,.58,1.8,5.39,5.39,0,0,0,3.49,1.65A5.84,5.84,0,0,1,32.15,28a3.93,3.93,0,0,1,1.6,1.91s.09.33.14.61a2.34,2.34,0,0,1,1.48,0c.05-.28.14-.61.14-.61A3.93,3.93,0,0,1,37.11,28a5.84,5.84,0,0,1,2.82-1.05,5.39,5.39,0,0,0,3.48-1.65,2.21,2.21,0,0,0,.59-1.8,2.39,2.39,0,0,0-1.09-1.4m-5.8,5.89Zm-5,0ZM28.2,36a6.67,6.67,0,0,0,.47-2.61,20.51,20.51,0,0,0-3.45.87,5.07,5.07,0,0,1,.24,1.55A8.18,8.18,0,0,1,25,38.34,21.62,21.62,0,0,1,28.2,36M15.77,25a21.41,21.41,0,0,0-3.9.62,5.25,5.25,0,0,0-3.22-.64c-1.5,0-3,0-4.37-1.16a2.31,2.31,0,0,1-1-1.86,2.41,2.41,0,0,1,1.08-1.57l0,0,0,0a2.53,2.53,0,0,1-.83-1.54,1.63,1.63,0,0,1,.53-1.21h0c1.64-1.46,3.32.18,3.34.2l0,0v0A2.34,2.34,0,0,1,9,16.85a2.7,2.7,0,0,1,2.07,1,5.8,5.8,0,0,1,1.35,4.41A3.47,3.47,0,0,0,12.68,24c.2.33.44.81.45.82h0c0-.05-.08-4.78-.26-5.58a5.17,5.17,0,0,0-1.63-2.47,5.25,5.25,0,0,1-1.91-3.59A2.5,2.5,0,0,1,10,11.05a2.42,2.42,0,0,1,1.84-.47h0v0a2.82,2.82,0,0,1,.49-2,1.71,1.71,0,0,1,1.37-.54h0a1.7,1.7,0,0,1,1.36.54,2.82,2.82,0,0,1,.49,2v0h0a2.43,2.43,0,0,1,1.84.47,2.53,2.53,0,0,1,.66,2.13,5.25,5.25,0,0,1-1.91,3.59,5.17,5.17,0,0,0-1.63,2.47c-.18.8-.24,5.22-.24,5.26h0a2.48,2.48,0,0,1,.5-.82A2.84,2.84,0,0,0,15.17,22a5.62,5.62,0,0,1,1.14-4.09,2.38,2.38,0,0,1,1.83-1,2.29,2.29,0,0,1,1.56.87l0,0,0,0a2.62,2.62,0,0,1,1.58-1,1.65,1.65,0,0,1,1.29.53h0a1.58,1.58,0,0,1,.57,1.23,2.55,2.55,0,0,1-.94,1.58l0,0,0,0a2.25,2.25,0,0,1,.93,1.5,2.27,2.27,0,0,1-.94,1.81,4.56,4.56,0,0,1-3.7.92c-1.68-.1-2.25,0-2.76.52" transform="translate(0.01 0.01)"/><path id="パス_990" data-name="パス 990" class="cls-1" d="M85.6,57.64c-.77.1-1,.31-1.5,2l-1.24,4a9.39,9.39,0,0,0-.4,2A2.15,2.15,0,0,0,84.3,68a1.94,1.94,0,0,0,.59,0c2.21,0,3.3-2,3.94-4.12l.83-2.59c.34-1.16.64-2.39.7-2.76.1-.59,0-.82-.79-.92l-.45-.07a.33.33,0,0,1,.06-.47h0c.71,0,1.33,0,2.07,0s1.23,0,1.92,0a.33.33,0,0,1,0,.47h0l-.45.09a1.4,1.4,0,0,0-1.19.77,22.82,22.82,0,0,0-1,2.88L89.69,64a7.71,7.71,0,0,1-2,3.6,5.19,5.19,0,0,1-3.37,1.2c-2.35,0-3.9-.92-3.83-3a6.74,6.74,0,0,1,.35-1.83l1.34-4.32c.47-1.5.5-1.88-.41-2l-.43,0a.32.32,0,0,1,.06-.46l0,0c.84,0,1.55,0,2.38,0s1.52,0,2.28,0c.12.1.12.41,0,.48Z" transform="translate(0.01 0.01)"/><path id="パス_991" data-name="パス 991" class="cls-1" d="M98.7,62.45a4.62,4.62,0,0,1-.31,1.37c-.31.84-1.14,2.73-1.42,3.41-.08.21-.1.35,0,.35a4,4,0,0,0,1.59-1.17c.21,0,.31.1.31.31a4.34,4.34,0,0,1-3.32,2,.62.62,0,0,1-.58-.55,2.63,2.63,0,0,1,.31-1c.45-1,1-2.47,1.45-3.49a3,3,0,0,0,.27-1c0-.15,0-.29-.24-.29s-1,.53-1.83,1.53a25.35,25.35,0,0,0-2.62,4.58.57.57,0,0,1-.59.27c-.31,0-.91-.1-.76-.58.07-.23,1.66-4.51,1.83-5,.1-.28.14-.52-.07-.52a3.19,3.19,0,0,0-1.48.9.28.28,0,0,1-.28-.27h0a4,4,0,0,1,3-1.81c.62,0,.68.52.52.9l-1,2.68h.07c1.08-1.54,2.67-3.57,4.16-3.57a.91.91,0,0,1,1,.8.86.86,0,0,1,0,.16" transform="translate(0.01 0.01)"/><path id="パス_992" data-name="パス 992" class="cls-1" d="M102.9,58.59a1.22,1.22,0,0,1,1.17-1.26h0a.76.76,0,0,1,.83.68v.17a1.21,1.21,0,0,1-1.17,1.25h0a.79.79,0,0,1-.83-.75v-.09m-1,8.65c-.07.17-.09.32,0,.32a4.48,4.48,0,0,0,1.72-1.19.3.3,0,0,1,.3.3v0a5.34,5.34,0,0,1-3.45,2,.67.67,0,0,1-.55-.53,1.57,1.57,0,0,1,.15-.68L102.08,63c.07-.17.07-.27,0-.27a4.17,4.17,0,0,0-1.48.93.27.27,0,0,1-.25-.3.11.11,0,0,1,0-.05,5.31,5.31,0,0,1,3.17-1.84.66.66,0,0,1,.57.48,1.28,1.28,0,0,1-.19.74Z" transform="translate(0.01 0.01)"/><path id="パス_993" data-name="パス 993" class="cls-1" d="M105.41,67.69a4.21,4.21,0,0,1,.35-1.52l1.15-2.93c.12-.3.1-.55-.06-.55a3.54,3.54,0,0,0-1.54,1.13.33.33,0,0,1-.31-.31,4.29,4.29,0,0,1,3.07-2,.8.8,0,0,1,.75.84.45.45,0,0,1,0,.16,4.4,4.4,0,0,1-.31.95l-1.07,2.77a3.45,3.45,0,0,0-.27,1,.47.47,0,0,0,.42.5h.06a3.06,3.06,0,0,0,1.73-1.26,5.62,5.62,0,0,0,1.14-2.76,3.6,3.6,0,0,0-.19-1.3.91.91,0,0,1,.9-.9c.74.07.87.73.86,1.19,0,1.28-1.37,3.59-2.94,4.85a4.33,4.33,0,0,1-2.77,1.25c-.59,0-.94-.69-.94-1.09" transform="translate(0.01 0.01)"/><path id="パス_994" data-name="パス 994" class="cls-1" d="M115.41,62.8A5.9,5.9,0,0,0,114.17,65a4.57,4.57,0,0,0,2-1.17,2.18,2.18,0,0,0,.64-1.3c0-.22-.1-.43-.32-.43s-.6.21-1,.69M112,66.89a6.18,6.18,0,0,1,2.45-4.47,4.13,4.13,0,0,1,2.42-.93,1.31,1.31,0,0,1,1.38,1.19c0,1.56-2.34,2.4-4.26,2.92a3.53,3.53,0,0,0-.16,1.12c0,.64.28,1,.76,1a3.19,3.19,0,0,0,2-1.08.28.28,0,0,1,.28.3v0a4,4,0,0,1-3.28,1.81A1.66,1.66,0,0,1,112,67.08c0-.06,0-.13,0-.19" transform="translate(0.01 0.01)"/><path id="パス_995" data-name="パス 995" class="cls-1" d="M121.65,63.28l-.6,1.78h.1a18.53,18.53,0,0,1,1.54-2.47c.55-.69,1-1.1,1.53-1.1s.8.48.8,1-.4,1.39-.94,1.39c-.2,0-.27-.19-.34-.5s-.17-.52-.35-.52-.6.38-1.17,1.33a38.48,38.48,0,0,0-2.07,4.35c-.09.2-.31.27-.59.27s-1-.1-.79-.58c.38-1.13,1.24-3.53,1.72-5.1.09-.27.07-.45-.1-.45-.38,0-.93.49-1.34,1a.28.28,0,0,1-.29-.27.17.17,0,0,1,0-.07,3.15,3.15,0,0,1,2.38-1.78c.93,0,.78,1,.5,1.79" transform="translate(0.01 0.01)"/><path id="パス_996" data-name="パス 996" class="cls-1" d="M124.21,67.65c0-.38.27-.83.66-.83a.55.55,0,0,1,.37.24,1.87,1.87,0,0,0,1.31.78.66.66,0,0,0,.7-.62,3.05,3.05,0,0,0-.87-1.59,3,3,0,0,1-.73-1.64,2.45,2.45,0,0,1,1-1.85,2.66,2.66,0,0,1,1.56-.65,1.31,1.31,0,0,1,1.38,1.19.72.72,0,0,1-.55.72.46.46,0,0,1-.38-.2c-.49-.56-.76-.75-1.21-.75a.57.57,0,0,0-.59.54h0c0,.57.57,1.07.88,1.48a2.73,2.73,0,0,1,.75,1.83,2.38,2.38,0,0,1-1,1.78,3,3,0,0,1-1.93.69,1.31,1.31,0,0,1-1.39-1.12" transform="translate(0.01 0.01)"/><path id="パス_997" data-name="パス 997" class="cls-1" d="M133,58.59a1.22,1.22,0,0,1,1.17-1.26h0A.76.76,0,0,1,135,58v.17a1.22,1.22,0,0,1-1.18,1.25h0a.78.78,0,0,1-.83-.75v-.09m-1,8.65c-.07.17-.09.32.05.32a4.48,4.48,0,0,0,1.72-1.19.3.3,0,0,1,.3.3v0a5.34,5.34,0,0,1-3.45,2,.67.67,0,0,1-.55-.53,1.57,1.57,0,0,1,.15-.68L132.14,63c.07-.17.07-.27,0-.27a4.17,4.17,0,0,0-1.48.93.28.28,0,0,1-.25-.3.11.11,0,0,1,0-.05,5.31,5.31,0,0,1,3.17-1.84.66.66,0,0,1,.57.48,1.21,1.21,0,0,1-.19.74Z" transform="translate(0.01 0.01)"/><path id="パス_998" data-name="パス 998" class="cls-1" d="M138.37,62.59l-1.55,4.47c-.1.28-.07.42.1.42a5.51,5.51,0,0,0,1.9-1.45.29.29,0,0,1,.29.29s0,.06,0,.09c-.76,1.14-2.46,2.36-3.56,2.36a.62.62,0,0,1-.62-.58,3,3,0,0,1,.21-1l1.58-4.64H135.4a.46.46,0,0,1,.18-.56l1.45-.27,1.1-1.68a.82.82,0,0,1,.41-.08.63.63,0,0,1,.55.22l-.48,1.6h1.28a.55.55,0,0,1-.14.76Z" transform="translate(0.01 0.01)"/><path id="パス_999" data-name="パス 999" class="cls-1" d="M143.44,64.53a20.56,20.56,0,0,1-.23,3.59h.07a16.31,16.31,0,0,0,1.52-3.87,13.6,13.6,0,0,0,.38-2.1c0-.52.26-.63.5-.63a1.4,1.4,0,0,1,.64.18.5.5,0,0,1,.23.45,15.67,15.67,0,0,1-2,5.14,25.59,25.59,0,0,1-2.94,4.23,4,4,0,0,1-2.9,1.65,1,1,0,0,1-1.12-.91.89.89,0,0,1,.81-1h.06a.69.69,0,0,1,.58.37c.23.29.36.46.6.46a1.47,1.47,0,0,0,1-.43,4.64,4.64,0,0,0,1.05-2.07,13.5,13.5,0,0,0,.3-3.8c0-2-.26-3-.64-3s-.74.67-1.05,1.33a.31.31,0,0,1-.43-.11.14.14,0,0,1,0-.06c.32-1.05,1.1-2.52,2.29-2.52.92,0,1.33,1.26,1.36,3" transform="translate(0.01 0.01)"/><path id="パス_1000" data-name="パス 1000" class="cls-1" d="M153.24,67.13A9.62,9.62,0,0,0,154.69,63c0-.46-.07-.93-.55-.93-.31,0-.68.19-1.12.76a9,9,0,0,0-1.71,4.38c0,.52.22.9.62.9s.79-.27,1.31-1m-1.71-4.48a3.64,3.64,0,0,1,2.62-1.16,2,2,0,0,1,2.15,1.89,2.33,2.33,0,0,1,0,.46,5.6,5.6,0,0,1-1.69,3.75,3.77,3.77,0,0,1-2.73,1.18,2,2,0,0,1-2.15-1.88,1.51,1.51,0,0,1,0-.37,5.94,5.94,0,0,1,1.81-3.87" transform="translate(0.01 0.01)"/><path id="パス_1001" data-name="パス 1001" class="cls-1" d="M160.77,62.49c-.59,1.73-1.38,4.87-1.92,6.56A10,10,0,0,1,157.52,72a3.22,3.22,0,0,1-2.34,1.19A1.34,1.34,0,0,1,153.72,72a.75.75,0,0,1,.66-.81.6.6,0,0,1,.54.34c.33.52.7.86,1,.86s.5-.27.84-1.46c.59-2.08,1.42-5.42,2.28-8.46h-1.53a.54.54,0,0,1,.2-.76h1.54a12,12,0,0,1,1.48-3.54,4,4,0,0,1,3.3-2c1.07,0,1.73.62,1.73,1.33a1.11,1.11,0,0,1-.93,1.17.33.33,0,0,1-.38-.34c-.14-1.17-.64-1.54-1-1.54s-.79.43-1.15,1.16A21.82,21.82,0,0,0,161,61.73H163a.58.58,0,0,1-.21.76Z" transform="translate(0.01 0.01)"/><path id="パス_1002" data-name="パス 1002" class="cls-1" d="M176.19,57.14c.78,0,1-.1,1.33-.41a.39.39,0,0,1,.43.06,16.28,16.28,0,0,0-1,2.7.37.37,0,0,1-.53,0l0,0c.07-.71.07-1.26-.25-1.45a2.67,2.67,0,0,0-1.25-.22h-1c-.52,0-.53,0-.72.62l-2.37,7.61c-.48,1.5-.51,1.88.4,2l.73.07a.43.43,0,0,1-.1.5c-1.12,0-1.84-.06-2.67-.06s-1.52,0-2.47.06c-.14-.1-.14-.44,0-.5l.7-.09c.77-.07.94-.27,1.48-2l2.38-7.61c.19-.59.17-.62-.41-.62H170a3,3,0,0,0-1.49.29,4.11,4.11,0,0,0-1.34,1.38.37.37,0,0,1-.51-.16h0c.47-.84.91-1.7,1.3-2.59.06-.1.27-.1.41,0,0,.34.17.44,1.29.44Z" transform="translate(0.01 0.01)"/><path id="パス_1003" data-name="パス 1003" class="cls-1" d="M173,67.65c0-.38.28-.83.66-.83a.55.55,0,0,1,.37.24,1.87,1.87,0,0,0,1.32.78.66.66,0,0,0,.69-.62,3.05,3.05,0,0,0-.87-1.59,3,3,0,0,1-.72-1.64,2.39,2.39,0,0,1,1-1.85,2.63,2.63,0,0,1,1.55-.65,1.3,1.3,0,0,1,1.38,1.19.69.69,0,0,1-.55.72.46.46,0,0,1-.38-.2c-.48-.55-.76-.75-1.21-.75a.56.56,0,0,0-.58.54h0c0,.57.57,1.07.88,1.48a2.72,2.72,0,0,1,.74,1.83,2.37,2.37,0,0,1-1,1.78,3,3,0,0,1-1.94.69A1.3,1.3,0,0,1,173,67.65" transform="translate(0.01 0.01)"/><path id="パス_1004" data-name="パス 1004" class="cls-1" d="M180.73,63.18c.1-.27.09-.45,0-.45-.34,0-1.12.68-1.58,1.16-.18,0-.32-.14-.28-.34a4.92,4.92,0,0,1,3.28-2.06.68.68,0,0,1,.66.62,1.88,1.88,0,0,1-.1.47L180.88,67c-.12.32,0,.49.12.49s.66-.37,1.26-.94a18,18,0,0,0,3.24-5,1.86,1.86,0,0,1,.52-.07,1.14,1.14,0,0,1,.87.35c-.44,1.12-1.33,3.38-2,5.26-.09.28-.09.47.08.47a4.4,4.4,0,0,0,1.66-1.26.27.27,0,0,1,.31.23.11.11,0,0,1,0,.08,5,5,0,0,1-3.34,2.16.55.55,0,0,1-.57-.53.46.46,0,0,1,0-.23l1.07-2.78h-.05c-1.08,1.45-3.11,3.54-4.24,3.54A.84.84,0,0,1,179,68a2.53,2.53,0,0,1,.21-.85Z" transform="translate(0.01 0.01)"/><path id="パス_1005" data-name="パス 1005" class="cls-1" d="M192.26,64.42c.69-.46,1.17-1,1.17-1.46a.47.47,0,0,0-.47-.47h-.05a3.61,3.61,0,0,0-2.1,1.33,4.33,4.33,0,0,0-.9,1.26c0,.1,0,.24.17.24a4.72,4.72,0,0,0,2.18-.9m3-1.81a2.32,2.32,0,0,1-1.06,1.71,5.54,5.54,0,0,1-2.26,1c-.1,0-.1.17-.07.31a9.2,9.2,0,0,0,.5,1.45c.16.33.3.5.5.5s.69-.38,1.14-.86a.26.26,0,0,1,.31.2v0a3,3,0,0,1-2.27,1.78c-.42,0-.75-.28-1-.8a10.28,10.28,0,0,1-.63-1.79c-.07-.23-.2-.35-.41-.31s-.45.12-.66.64l-.79,2a.6.6,0,0,1-.59.28c-.31,0-.93-.1-.79-.59l3.24-9.56c.31-.93.31-1.1,0-1.26l-.41-.21a.26.26,0,0,1,0-.34,13,13,0,0,1,2.66-.62.18.18,0,0,1,.16.13c-.21.62-.45,1.19-.85,2.37l-1.73,5h0c.93-1,2-2.23,3.56-2.23,1,0,1.38.62,1.38,1.12" transform="translate(0.01 0.01)"/><path id="パス_1006" data-name="パス 1006" class="cls-1" d="M197.43,63.18c.1-.27.09-.45-.05-.45-.34,0-1.12.68-1.59,1.16-.17,0-.31-.14-.27-.34a4.92,4.92,0,0,1,3.28-2.06.69.69,0,0,1,.66.62,2.46,2.46,0,0,1-.1.47L197.58,67c-.12.32-.05.49.12.49s.65-.37,1.26-.94a18.2,18.2,0,0,0,3.24-5,1.81,1.81,0,0,1,.52-.07,1.12,1.12,0,0,1,.86.35c-.43,1.12-1.33,3.38-2,5.26-.09.28-.09.47.08.47a4.56,4.56,0,0,0,1.66-1.26.27.27,0,0,1,.31.23v.08a5,5,0,0,1-3.35,2.16.54.54,0,0,1-.56-.52.61.61,0,0,1,0-.24l1.07-2.78h0c-1.09,1.45-3.11,3.54-4.25,3.54a.85.85,0,0,1-.83-.83,2.79,2.79,0,0,1,.21-.85Z" transform="translate(0.01 0.01)"/><path id="パス_1007" data-name="パス 1007" class="cls-1" d="M207.56,64.18a5.64,5.64,0,0,0-1.36,3.16c0,.54.24.81.48.81a2.83,2.83,0,0,0,1.52-1.09,9.1,9.1,0,0,0,2.17-4.14c0-.43-.24-.6-.52-.6-.44,0-1.31.6-2.29,1.86m2.67,2.64a5.69,5.69,0,0,1-3.93,2,1.54,1.54,0,0,1-1.69-1.36,1.31,1.31,0,0,1,0-.28,9.14,9.14,0,0,1,.76-3l2.12-5.65c.31-.81.33-1.05,0-1.22l-.41-.28a.27.27,0,0,1,.07-.31,11.89,11.89,0,0,1,2.65-.48.23.23,0,0,1,.13.17c-.33.83-.59,1.45-.94,2.33l-2.1,5.47h0c1-1.48,2.23-2.67,3.44-2.67A1.5,1.5,0,0,1,212,62.89a1,1,0,0,1,0,.25,5.74,5.74,0,0,1-1.79,3.69" transform="translate(0.01 0.01)"/><path id="パス_1008" data-name="パス 1008" class="cls-1" d="M215.83,63.2a7.86,7.86,0,0,0-1.9,4.14c0,.19.06.35.2.35a5.17,5.17,0,0,0,1.76-1.39,10,10,0,0,0,1.9-3.24.78.78,0,0,0-.76-.6c-.38,0-.65.16-1.21.74m2.87-2a.83.83,0,0,1,.34-.07c.33,0,.82.1,1,.41-.48,1.13-1.59,4-2.23,5.77-.08.22,0,.31.09.31a4,4,0,0,0,1.73-1.12.29.29,0,0,1,.28.3v0a4.83,4.83,0,0,1-3.21,1.94.56.56,0,0,1-.57-.54h0a2.12,2.12,0,0,1,.18-.71l.62-1.64h0c-1.21,1.64-2.94,2.9-3.94,2.9a1,1,0,0,1-.93-1v0a8.43,8.43,0,0,1,4.18-5.62,2.74,2.74,0,0,1,1.34-.38.93.93,0,0,1,.4.12,1.59,1.59,0,0,1,.36.32Z" transform="translate(0.01 0.01)"/><path id="パス_1009" data-name="パス 1009" class="cls-1" d="M80.6,45.92l1.15-.21,2.74-.54,2.14-.43V35H85.2c-1.28,0-2.6.07-3.88.11l-.82-1.21c1.57.07,3.17.14,4.78.14h5.88l2-2.32,2.64,2.21c.57.5.46,1.07-.32,1.07H89.8v9.06l1.54-.32c1.6-.36,3.21-.75,4.77-1.14.15-1,.29-2.1.36-3.18a36.51,36.51,0,0,0,.14-4.56l-.1-2.35-.07-1.25,3.28,1.46h5.13l.78-1.35c-1,.39-2.1.35-2.5-.79-.35-1-.35-2-.74-3a9.65,9.65,0,0,0-1-1.68H100A25.26,25.26,0,0,1,97.25,29a15.81,15.81,0,0,1-2.85,2.24c-.36.18-.65-.07-.39-.43.5-.67,1-1.35,1.53-2.06.61-.93,1.18-1.86,1.75-2.82H89.48c1.39,1.07,3.24,2.17,3.06,4.17s-2.56,2.46-3.1,1c-.28-.86-.25-1.75-.46-2.6a9.7,9.7,0,0,0-1.07-2.6H87.2a22.71,22.71,0,0,1-5.35,5.67c-.07.07-1,.71-.93.14,0-.32.72-1.07.89-1.32a28.16,28.16,0,0,0,2.39-4.07,32.42,32.42,0,0,0,1.93-5.17c.21-.74.35-1.53.53-2.31l3.53,1.53c.86.36,1.18,1.18.18,1.57l-1,.35c-.32.65-.68,1.29-1,1.93l-.47.71h4.71l2.21-2.64,3,2.64a38.82,38.82,0,0,0,2.14-6l3.39,1.82c.89.46.89,1.28-.11,1.57l-.93.28c-.36.57-.71,1.14-1.07,1.75l-.43.6H108l2.39-2.75,3.1,2.75c.5.43.39,1-.32,1h-9.91c2,1.18,3.81,2.43,2.88,5l2.46,2.46c.6.64.72,1.46-.21,1.78l-.5.15V47c0,.42.07.78.57.85s1.36.11,1.75-.32a5.06,5.06,0,0,0,.78-1.6c.25-.71.54-1.43.79-2.14l.5-1.46c.07-.22.17-.72.46-.75s.25.25.25.43v.39L112.9,44l-.1,1.46c0,.5-.22,1.57.14,2,.53.64,1.67,1.14,1.14,2.14-.43.82-1.64.93-2.46,1a27.8,27.8,0,0,1-4.28.14c-1.82,0-2.64-.39-2.64-2.35V33.66H99.6c0,1.74.07,3.46,0,5.16,2.35.68,5.31,2,4.7,5A1.55,1.55,0,0,1,103,45.17c-1.07.14-1.57-.78-1.78-1.64l-.47-1.6a4.52,4.52,0,0,0-1.24-2.17A15.74,15.74,0,0,1,98.14,46c-1.53,3.28-4.74,5.31-8.09,6.42-.22.07-1,.39-1-.11,0-.28.65-.53.82-.64A11.48,11.48,0,0,0,96,43.36L94.68,44l-2.74,1.25L89,46.64c-1.28.57-2.6,1.1-3.88,1.64l-.4.89c-.17.39-.35.82-.85.89s-.79-.28-1-.64Z" transform="translate(0.01 0.01)"/><path id="パス_1010" data-name="パス 1010" class="cls-1" d="M143.87,36.54a29.93,29.93,0,0,1-4.13,6.89,16.81,16.81,0,0,1-4.11-6.89Zm-9.3,0a29.51,29.51,0,0,0,1.32,4.35,20.63,20.63,0,0,0,2.39,4.18,24.85,24.85,0,0,1-2.89,2.63A25.79,25.79,0,0,1,130,50.88c-.82.39-1.71.68-2.5,1.1-.18.11-.39.32-.21.53s2.71-.42,2.92-.5a27.73,27.73,0,0,0,9.66-4.92,22.54,22.54,0,0,0,7.71,5.61,8.59,8.59,0,0,1,3.17-3.43,42.1,42.1,0,0,1-5.21-1.78,21,21,0,0,1-3.71-2.25c.68-.82,1.36-1.6,2-2.45a37.64,37.64,0,0,0,2.29-3.46l.57-1,.75-.11c1.32-.18,1.32-.93.5-1.85l-2.53-2.86-1.6,2.11h-3.23V27.7h4.85l-.43,1c-.53,1.25-1.17,2.46-1.78,3.67a1.46,1.46,0,0,0-.25.75c.07.57,1.5-.68,1.5-.68l1.11-.89,1.35-1,.86-.68,1.32,0c.43,0,1,0,1.28-.43s-.11-1.07-.39-1.39l-3-3.43-1.71,2.14h-4.75V22.1l.57-.32a1.11,1.11,0,0,0,.68-.82.84.84,0,0,0-.85-.82h0l-3.81-.35v7h-4.53l-3.92-1.92a110.18,110.18,0,0,1,.14,13.23c-.25,4.17-1,8.45-3.32,11.94l-1,1.5c-.14.25-.28.64.22.57s1.28-.92,1.57-1.17A16.05,16.05,0,0,0,130.92,44a32.37,32.37,0,0,0,1.14-7.45ZM120.31,21.35c0,.22.32.4.46.5a5.87,5.87,0,0,1,1.57,2c.53,1,.43,2.18.93,3.14s2.17.72,2.78-.07c1.14-1.39,0-3.42-1.21-4.35a8.2,8.2,0,0,0-4.1-1.46c-.15,0-.43,0-.43.25m1.46,13.23c1.6-1,.93-3.5-.28-4.53a6.92,6.92,0,0,0-4.07-1.46c-.25,0-.64.14-.32.39a5.43,5.43,0,0,1,2,2.92l.5,1.82a1.38,1.38,0,0,0,1.61,1.1,1.27,1.27,0,0,0,.56-.24m-4,7.34c-.4,0-.79.43-.4.75s1.25.28,1.89.86A4.24,4.24,0,0,1,120,46.6l-.29,2.18a2.85,2.85,0,0,0,.47,2.21,2.14,2.14,0,0,0,2.06.39c2.25-.68.86-4.1.54-5.56a5.89,5.89,0,0,1,.07-3.5l5.53-15.4c.14-.46-.43-.78-.68-.32L120,42.12a10.25,10.25,0,0,0-2.21-.18m14.4-14.23h5.06v7.92h-5.07Z" transform="translate(0.01 0.01)"/><path id="パス_1011" data-name="パス 1011" class="cls-1" d="M181.33,27l3.31,2.64c.68.54.47,1.14-.43,1.14H169.7a34.74,34.74,0,0,0,2,5.24A22.05,22.05,0,0,0,176,41.93a29,29,0,0,0,10.16,6,9.23,9.23,0,0,0-4.38,3.1,28.66,28.66,0,0,1-5.39-4.17,26.47,26.47,0,0,1-6-10,33.17,33.17,0,0,1-1.21-5.1,29.36,29.36,0,0,1-2.39,9.34,20.63,20.63,0,0,1-10.2,9.52c-.32.14-3.17,1.5-3.6,1.14-.28-.25.18-.53.36-.64a42.89,42.89,0,0,0,5.06-3.28c5.13-4.1,7-10.7,7.49-17H160c-2.07,0-4.1.11-6.17.18L153,29.66l3.82.11,3.17.07h6a83.57,83.57,0,0,0-.22-9.88l3.93.25c.57,0,1.1.08,1.28.68s-.21.86-.64,1.07l-.82.43c0,2.5,0,5-.22,7.45h9.56Z" transform="translate(0.01 0.01)"/><path id="パス_1012" data-name="パス 1012" class="cls-1" d="M203.42,27.38c-1.57.14-1.89-2.18-2.21-3.24a7.79,7.79,0,0,0-2-3.1c-.11-.11-1.18-1-.26-.93a7.15,7.15,0,0,1,2.07.71A6.38,6.38,0,0,1,205,24.39c.35,1.14-.15,2.89-1.54,3m-9-.57L194,25.13a10.36,10.36,0,0,0-.68-1.78,13.9,13.9,0,0,0-.71-1.25l-.61-.85c-.21-.29-.43-.75.15-.61a11.45,11.45,0,0,1,3.52,1.82,4.64,4.64,0,0,1,1.9,3.35c.07,2.42-2.71,3-3.18,1M192.26,30a7.8,7.8,0,0,1-.9,4.21c-.71,1-1.88,1.89-3.17,1.25a1.83,1.83,0,0,1-.64-2.49,1.76,1.76,0,0,1,.29-.37l1.17-1.1a6,6,0,0,0,1.86-4.1c0-.21,0-.92.39-.57a6.41,6.41,0,0,1,.82,2.25h15.33a36.48,36.48,0,0,0,3.5-9.31l3.42,2c.93.54.78,1.07-.14,1.47l-.68.24-.86,1c-1,1.22-2.06,2.43-3.13,3.64l-.86,1h6.24l1.53-2.1,2.68,3.28c.89,1,.89,1.78-.68,1.82l-1.18,0-.64.47-1.28.89A13.41,13.41,0,0,1,213.12,35c-.22,0,0-.36,0-.46.35-.79.71-1.54,1.07-2.28s.57-1.43.82-2.18ZM186.8,40.86l3.75.11,3.24.07h7.7V36.69l3.28.71c.89-.78,1.71-1.57,2.53-2.42H197.07l-2.25.07-1.85,0-.68-1.17c1.61,0,3.21.14,4.78.14H208l1.85-1.89,2.54,2.5c.85.86.39,1.53-.72,1.5l-1,0-1.43.68c-1.5.71-3,1.39-4.53,2.07V41h9.2l2.36-2.71,3.21,2.46c.5.43.71,1.25-.15,1.25H204.66v8c0,1.18-1.71,1.79-2.56,2.1-1.07.43-1.89.4-1.89-.89,0-.46-.11-.6-.54-.78-1.25-.43-2.5-.82-3.74-1.25-.18-.07-.5-.18-.39-.43s.42-.14.6-.14h1l1.43,0,1.39,0a2.38,2.38,0,0,0,1.32-.1c.25-.15.25-.54.25-.79V42h-7.7c-2.07,0-4.14.11-6.21.18Z" transform="translate(0.01 0.01)"/></g></svg>
