<svg id="レイヤー_1" data-name="レイヤー 1" xmlns="http://www.w3.org/2000/svg" viewBox="0 0 131.38 131.38"><defs><style>.cls-1,.cls-2{fill:none;}.cls-2{stroke:#000;stroke-linecap:round;stroke-linejoin:round;stroke-width:6px;}</style></defs><rect class="cls-1" width="131.38" height="131.38"/><polyline class="cls-2" points="11.69 61.89 36.74 61.81 37.76 61.61 38.44 61.34 39.12 60.88 39.79 60.19 40.47 59.23 41.48 57.27 42.5 54.74 45.55 46.49 46.23 45.3 46.9 44.66 47.24 44.61 47.58 44.75 47.92 45.13 48.26 45.74 48.93 47.77 49.61 50.94 50.29 55.26 51.3 63.78 52.66 77.97 55.03 103.8 56.04 112.27 56.72 116.3 57.4 118.82 57.74 119.46 58.07 119.69 58.41 119.5 58.75 118.88 59.09 117.85 59.77 114.58 60.44 109.82 61.46 100.3 62.81 84.41 66.2 42.14 67.22 31.9 68.23 23.65 69.25 17.58 69.92 14.75 70.6 12.86 71.28 11.87 71.62 11.69 71.95 11.71 72.29 11.92 72.97 12.85 73.65 14.42 74.33 16.54 75.34 20.55 76.69 27.04 79.06 39.88 81.44 52.3 82.79 58.39 84.14 63.42 85.16 66.42 86.17 68.74 87.19 70.39 87.87 71.15 88.54 71.65 89.22 71.91 89.9 71.97 90.58 71.85 91.59 71.39 92.95 70.45 96.33 67.82 97.69 67.15 98.7 66.88 99.72 66.81 100.73 66.92 102.09 67.3 104.12 68.14 106.49 69.11 107.84 69.46 109.2 69.6 110.55 69.5 111.91 69.19 113.6 68.57 119.69 66.02"/></svg>